<svg width="24" height="24" viewBox="0 0 24 24" fill="currentColor" xmlns="http://www.w3.org/2000/svg">
<path fill-rule="evenodd" clip-rule="evenodd" d="M8.89835 4C10.065 4 11 4.94373 11 6.10164V8.89918C11 10.0645 10.065 11 8.89835 11H6.10165C4.94326 11 4 10.0645 4 8.89918V6.10164C4 4.94373 4.94326 4 6.10165 4H8.89835ZM11 15.1016C11 13.9363 10.065 13 8.89835 13H6.10165C4.94326 13 4 13.9363 4 15.1016V17.8992C4 19.0563 4.94326 20 6.10165 20H8.89835C10.065 20 11 19.0563 11 17.8992V15.1016ZM20 15.1016C20 13.9363 19.0567 13 17.8983 13H15.1017C13.935 13 13 13.9363 13 15.1016V17.8992C13 19.0563 13.935 20 15.1017 20H17.8983C19.0567 20 20 19.0563 20 17.8992V15.1016ZM20 6.10164C20 4.94373 19.0567 4 17.8983 4H15.1017C13.935 4 13 4.94373 13 6.10164V8.89918C13 10.0645 13.935 11 15.1017 11H17.8983C19.0567 11 20 10.0645 20 8.89918V6.10164Z" fill="currentColor"/>
</svg>
