<svg width="24" height="24" viewBox="0 0 24 24" fill="none" xmlns="http://www.w3.org/2000/svg">
<g clip-path="url(#clip0_154_31993)">
<path fill-rule="evenodd" clip-rule="evenodd" d="M6.82158 3L6.80699 3.00042L6.80562 3.00042C6.80105 3.00043 6.79646 3.00043 6.79171 3.00002C6.76801 3.00051 6.74436 3.00214 6.72131 3.00535C6.71371 3.00623 6.70614 3.00723 6.69852 3.00824C6.69401 3.00883 6.68949 3.00943 6.68492 3.01C6.66456 3.01342 6.64424 3.01768 6.62418 3.02327C6.61517 3.02557 6.60621 3.02804 6.59738 3.03047C6.59401 3.0314 6.59066 3.03232 6.58734 3.03322C6.56757 3.03938 6.54796 3.04639 6.52889 3.05467C6.51385 3.06079 6.49907 3.06739 6.48448 3.07394C6.46969 3.08111 6.45511 3.0888 6.44077 3.09756C6.42533 3.1064 6.4102 3.11577 6.39566 3.12495C6.35399 3.1529 6.31446 3.18553 6.27787 3.22284L2.21751 7.35807L2.1454 7.44311C1.92915 7.74003 1.95421 8.16055 2.21995 8.4287L2.30388 8.50178C2.59673 8.72103 3.01156 8.69559 3.27607 8.42623L6.05956 5.59014L6.0602 17.5034L6.06702 17.6062C6.11651 17.9757 6.42892 18.2605 6.80699 18.2605C7.21947 18.2605 7.55379 17.9215 7.55379 17.5034L7.55314 5.58913L10.3382 8.42623L10.4218 8.49971C10.7136 8.72032 11.1286 8.69685 11.3943 8.4287C11.6866 8.13375 11.6877 7.65438 11.3967 7.35807L7.33642 3.22284L7.25253 3.14913C7.23949 3.13927 7.22619 3.12991 7.2129 3.1219C7.20271 3.11519 7.19234 3.10873 7.18187 3.10222C7.17909 3.10049 7.17631 3.09876 7.17352 3.09701C7.15799 3.08813 7.14215 3.07986 7.12612 3.07283C7.11509 3.06754 7.10393 3.06251 7.09282 3.05751C7.09034 3.05639 7.08787 3.05528 7.0854 3.05416C7.06668 3.04655 7.04766 3.03974 7.02804 3.03414C7.01937 3.03142 7.01063 3.02885 7.00195 3.0263C6.99807 3.02516 6.9942 3.02403 6.99036 3.02288C6.9692 3.01747 6.94784 3.01302 6.92653 3.01007C6.91295 3.00785 6.89926 3.00601 6.88546 3.00455L6.89442 3.00502C6.87022 3.00215 6.84588 3.00047 6.82158 3ZM17.4329 6.39383C17.3835 6.02434 17.071 5.73953 16.693 5.73953C16.2805 5.73953 15.9462 6.07844 15.9462 6.49659L15.9461 18.4097L13.1618 15.5738L13.0782 15.5003C12.7864 15.2797 12.3714 15.3031 12.1057 15.5713C11.8134 15.8662 11.8123 16.3456 12.1032 16.6419L16.1636 20.7771L16.1649 20.7778C16.1883 20.8015 16.2132 20.8237 16.2395 20.844L16.2475 20.8509C16.2586 20.8593 16.2699 20.8673 16.2814 20.8743C16.2961 20.8842 16.3112 20.8936 16.3265 20.9029C16.3434 20.9126 16.3607 20.9216 16.3779 20.9291C16.3888 20.9342 16.3999 20.9391 16.4113 20.9445C16.4323 20.9531 16.4536 20.9607 16.475 20.9668C16.4815 20.9688 16.488 20.9707 16.4945 20.9726C16.4993 20.974 16.5041 20.9754 16.5089 20.9769C16.5303 20.9824 16.5519 20.9869 16.5735 20.9899C16.587 20.9921 16.6007 20.994 16.6144 20.9954L16.6056 20.995C16.6298 20.9978 16.6541 20.9995 16.6784 21L16.693 20.9995H16.6941C16.6985 20.9995 16.7029 20.9995 16.7073 21C16.7317 20.9995 16.7559 20.9978 16.7805 20.9944C16.7912 20.9931 16.8019 20.9916 16.8121 20.9905C16.8338 20.9869 16.8554 20.9824 16.8769 20.9764C16.889 20.9733 16.901 20.9699 16.9126 20.9667C16.9324 20.9606 16.952 20.9536 16.9711 20.9453C16.9859 20.9393 17.0004 20.9328 17.0147 20.9264L17.0155 20.9261C17.0303 20.9189 17.0449 20.9112 17.0592 20.9024C17.0747 20.8936 17.0898 20.8842 17.1044 20.875C17.146 20.8471 17.1855 20.8145 17.2221 20.7771L21.2825 16.6419L21.3546 16.5568C21.5709 16.26 21.5458 15.8394 21.2801 15.5713C20.9877 15.2763 20.5149 15.2774 20.2239 15.5738L17.4397 18.4076L17.4398 6.49659L17.4329 6.39383Z" fill="white"/>
</g>
<defs>
<clipPath id="clip0_154_31993">
<rect width="24" height="24" fill="white"/>
</clipPath>
</defs>
</svg>
